<?xml version="1.0" encoding="utf-8" standalone="no"?>
<!DOCTYPE svg PUBLIC "-//W3C//DTD SVG 1.1//EN"
  "http://www.w3.org/Graphics/SVG/1.1/DTD/svg11.dtd">
<svg xmlns:xlink="http://www.w3.org/1999/xlink" width="720pt" height="288pt" viewBox="0 0 720 288" xmlns="http://www.w3.org/2000/svg" version="1.1">
 <metadata>
  <rdf:RDF xmlns:dc="http://purl.org/dc/elements/1.1/" xmlns:cc="http://creativecommons.org/ns#" xmlns:rdf="http://www.w3.org/1999/02/22-rdf-syntax-ns#">
   <cc:Work>
    <dc:type rdf:resource="http://purl.org/dc/dcmitype/StillImage"/>
    <dc:date>2026-09-24T14:25:21.920795</dc:date>
    <dc:format>image/svg+xml</dc:format>
    <dc:creator>
     <cc:Agent>
      <dc:title>Matplotlib v3.10.9, https://matplotlib.org/</dc:title>
     </cc:Agent>
    </dc:creator>
   </cc:Work>
  </rdf:RDF>
 </metadata>
 <defs>
  <style type="text/css">*{stroke-linejoin: round; stroke-linecap: butt}</style>
 </defs>
 <g id="figure_1">
  <g id="patch_1">
   <path d="M 0 288 
L 720 288 
L 720 0 
L 0 0 
z
" style="fill: #ffffff"/>
  </g>
  <g id="axes_1">
   <g id="patch_2">
    <path d="M 51.05 246.04 
L 709.2 246.04 
L 709.2 29.8752 
L 51.05 29.8752 
z
" style="fill: #ffffff"/>
   </g>
   <g id="FillBetweenPolyCollection_1"/>
   <g id="FillBetweenPolyCollection_2"/>
   <g id="matplotlib.axis_1">
    <g id="xtick_1">
     <g id="line2d_1">
      <defs>
       <path id="m92edbe735f" d="M 0 0 
L 0 3.5 
" style="stroke: #000000; stroke-width: 0.8"/>
      </defs>
      <g>
       <use xlink:href="#m92edbe735f" x="165.762764" y="246.04" style="stroke: #000000; stroke-width: 0.8"/>
      </g>
     </g>
     <g id="text_1">
      <text style="font-size: 10px; font-family: 'DejaVu Sans', 'Bitstream Vera Sans', 'Computer Modern Sans Serif', 'Lucida Grande', 'Verdana', 'Geneva', 'Lucid', 'Arial', 'Helvetica', 'Avant Garde', sans-serif; text-anchor: middle" x="165.762764" y="260.638438" transform="rotate(-0 165.762764 260.638438)">100</text>
     </g>
    </g>
    <g id="xtick_2">
     <g id="line2d_2">
      <g>
       <use xlink:href="#m92edbe735f" x="281.634243" y="246.04" style="stroke: #000000; stroke-width: 0.8"/>
      </g>
     </g>
     <g id="text_2">
      <text style="font-size: 10px; font-family: 'DejaVu Sans', 'Bitstream Vera Sans', 'Computer Modern Sans Serif', 'Lucida Grande', 'Verdana', 'Geneva', 'Lucid', 'Arial', 'Helvetica', 'Avant Garde', sans-serif; text-anchor: middle" x="281.634243" y="260.638438" transform="rotate(-0 281.634243 260.638438)">200</text>
     </g>
    </g>
    <g id="xtick_3">
     <g id="line2d_3">
      <g>
       <use xlink:href="#m92edbe735f" x="397.505722" y="246.04" style="stroke: #000000; stroke-width: 0.8"/>
      </g>
     </g>
     <g id="text_3">
      <text style="font-size: 10px; font-family: 'DejaVu Sans', 'Bitstream Vera Sans', 'Computer Modern Sans Serif', 'Lucida Grande', 'Verdana', 'Geneva', 'Lucid', 'Arial', 'Helvetica', 'Avant Garde', sans-serif; text-anchor: middle" x="397.505722" y="260.638438" transform="rotate(-0 397.505722 260.638438)">300</text>
     </g>
    </g>
    <g id="xtick_4">
     <g id="line2d_4">
      <g>
       <use xlink:href="#m92edbe735f" x="513.377201" y="246.04" style="stroke: #000000; stroke-width: 0.8"/>
      </g>
     </g>
     <g id="text_4">
      <text style="font-size: 10px; font-family: 'DejaVu Sans', 'Bitstream Vera Sans', 'Computer Modern Sans Serif', 'Lucida Grande', 'Verdana', 'Geneva', 'Lucid', 'Arial', 'Helvetica', 'Avant Garde', sans-serif; text-anchor: middle" x="513.377201" y="260.638438" transform="rotate(-0 513.377201 260.638438)">400</text>
     </g>
    </g>
    <g id="xtick_5">
     <g id="line2d_5">
      <g>
       <use xlink:href="#m92edbe735f" x="629.24868" y="246.04" style="stroke: #000000; stroke-width: 0.8"/>
      </g>
     </g>
     <g id="text_5">
      <text style="font-size: 10px; font-family: 'DejaVu Sans', 'Bitstream Vera Sans', 'Computer Modern Sans Serif', 'Lucida Grande', 'Verdana', 'Geneva', 'Lucid', 'Arial', 'Helvetica', 'Avant Garde', sans-serif; text-anchor: middle" x="629.24868" y="260.638438" transform="rotate(-0 629.24868 260.638438)">500</text>
     </g>
    </g>
    <g id="text_6">
     <text style="font-size: 10px; font-family: 'DejaVu Sans', 'Bitstream Vera Sans', 'Computer Modern Sans Serif', 'Lucida Grande', 'Verdana', 'Geneva', 'Lucid', 'Arial', 'Helvetica', 'Avant Garde', sans-serif; text-anchor: middle" x="380.125" y="274.316562" transform="rotate(-0 380.125 274.316562)">Amino acid position</text>
    </g>
   </g>
   <g id="matplotlib.axis_2">
    <g id="ytick_1">
     <g id="line2d_6">
      <defs>
       <path id="m7236387dfc" d="M 0 0 
L -3.5 0 
" style="stroke: #000000; stroke-width: 0.8"/>
      </defs>
      <g>
       <use xlink:href="#m7236387dfc" x="51.05" y="246.04" style="stroke: #000000; stroke-width: 0.8"/>
      </g>
     </g>
     <g id="text_7">
      <text style="font-size: 10px; font-family: 'DejaVu Sans', 'Bitstream Vera Sans', 'Computer Modern Sans Serif', 'Lucida Grande', 'Verdana', 'Geneva', 'Lucid', 'Arial', 'Helvetica', 'Avant Garde', sans-serif; text-anchor: end" x="44.05" y="249.839219" transform="rotate(-0 44.05 249.839219)">0</text>
     </g>
    </g>
    <g id="ytick_2">
     <g id="line2d_7">
      <g>
       <use xlink:href="#m7236387dfc" x="51.05" y="202.80704" style="stroke: #000000; stroke-width: 0.8"/>
      </g>
     </g>
     <g id="text_8">
      <text style="font-size: 10px; font-family: 'DejaVu Sans', 'Bitstream Vera Sans', 'Computer Modern Sans Serif', 'Lucida Grande', 'Verdana', 'Geneva', 'Lucid', 'Arial', 'Helvetica', 'Avant Garde', sans-serif; text-anchor: end" x="44.05" y="206.606259" transform="rotate(-0 44.05 206.606259)">20</text>
     </g>
    </g>
    <g id="ytick_3">
     <g id="line2d_8">
      <g>
       <use xlink:href="#m7236387dfc" x="51.05" y="159.57408" style="stroke: #000000; stroke-width: 0.8"/>
      </g>
     </g>
     <g id="text_9">
      <text style="font-size: 10px; font-family: 'DejaVu Sans', 'Bitstream Vera Sans', 'Computer Modern Sans Serif', 'Lucida Grande', 'Verdana', 'Geneva', 'Lucid', 'Arial', 'Helvetica', 'Avant Garde', sans-serif; text-anchor: end" x="44.05" y="163.373299" transform="rotate(-0 44.05 163.373299)">40</text>
     </g>
    </g>
    <g id="ytick_4">
     <g id="line2d_9">
      <g>
       <use xlink:href="#m7236387dfc" x="51.05" y="116.34112" style="stroke: #000000; stroke-width: 0.8"/>
      </g>
     </g>
     <g id="text_10">
      <text style="font-size: 10px; font-family: 'DejaVu Sans', 'Bitstream Vera Sans', 'Computer Modern Sans Serif', 'Lucida Grande', 'Verdana', 'Geneva', 'Lucid', 'Arial', 'Helvetica', 'Avant Garde', sans-serif; text-anchor: end" x="44.05" y="120.140339" transform="rotate(-0 44.05 120.140339)">60</text>
     </g>
    </g>
    <g id="ytick_5">
     <g id="line2d_10">
      <g>
       <use xlink:href="#m7236387dfc" x="51.05" y="73.10816" style="stroke: #000000; stroke-width: 0.8"/>
      </g>
     </g>
     <g id="text_11">
      <text style="font-size: 10px; font-family: 'DejaVu Sans', 'Bitstream Vera Sans', 'Computer Modern Sans Serif', 'Lucida Grande', 'Verdana', 'Geneva', 'Lucid', 'Arial', 'Helvetica', 'Avant Garde', sans-serif; text-anchor: end" x="44.05" y="76.907379" transform="rotate(-0 44.05 76.907379)">80</text>
     </g>
    </g>
    <g id="ytick_6">
     <g id="line2d_11">
      <g>
       <use xlink:href="#m7236387dfc" x="51.05" y="29.8752" style="stroke: #000000; stroke-width: 0.8"/>
      </g>
     </g>
     <g id="text_12">
      <text style="font-size: 10px; font-family: 'DejaVu Sans', 'Bitstream Vera Sans', 'Computer Modern Sans Serif', 'Lucida Grande', 'Verdana', 'Geneva', 'Lucid', 'Arial', 'Helvetica', 'Avant Garde', sans-serif; text-anchor: end" x="44.05" y="33.674419" transform="rotate(-0 44.05 33.674419)">100</text>
     </g>
    </g>
    <g id="text_13">
     <text style="font-size: 10px; font-family: 'DejaVu Sans', 'Bitstream Vera Sans', 'Computer Modern Sans Serif', 'Lucida Grande', 'Verdana', 'Geneva', 'Lucid', 'Arial', 'Helvetica', 'Avant Garde', sans-serif; text-anchor: middle" x="18.882813" y="137.9576" transform="rotate(-90 18.882813 137.9576)">Seroreactive individuals (%)</text>
    </g>
   </g>
   <g id="line2d_12">
    <path d="M 51.05 246.04 
L 76.541725 246.04 
L 77.70044 207.893271 
L 129.842606 207.893271 
L 131.00132 246.04 
L 156.493046 246.04 
L 157.651761 207.893271 
L 183.143486 207.893271 
L 184.302201 106.168659 
L 209.793926 106.168659 
L 210.952641 131.599812 
L 236.444366 131.599812 
L 237.603081 246.04 
L 422.997447 246.04 
L 424.156162 169.746541 
L 431.108451 169.746541 
L 432.267165 150.673176 
L 449.647887 150.673176 
L 450.806602 93.453082 
L 476.298327 93.453082 
L 477.457042 112.526447 
L 484.409331 112.526447 
L 485.568046 118.884235 
L 502.948768 118.884235 
L 504.107482 239.682212 
L 529.599208 239.682212 
L 530.757923 214.251059 
L 537.710211 214.251059 
L 538.868926 207.893271 
L 582.900088 207.893271 
L 584.058803 239.682212 
L 591.011092 239.682212 
L 592.169806 246.04 
L 609.550528 246.04 
L 610.709243 239.682212 
L 662.851408 239.682212 
L 664.010123 246.04 
L 709.2 246.04 
L 709.2 246.04 
" clip-path="url(#p5d7e830531)" style="fill: none; stroke: #1f77b4; stroke-width: 1.8; stroke-linecap: square"/>
   </g>
   <g id="line2d_13">
    <path d="M 51.05 246.04 
L 76.541725 246.04 
L 77.70044 232.5297 
L 129.842606 232.5297 
L 131.00132 246.04 
L 156.493046 246.04 
L 157.651761 232.5297 
L 183.143486 232.5297 
L 184.302201 178.4885 
L 236.444366 178.4885 
L 237.603081 246.04 
L 422.997447 246.04 
L 424.156162 191.9988 
L 431.108451 191.9988 
L 432.267165 178.4885 
L 449.647887 178.4885 
L 450.806602 137.9576 
L 476.298327 137.9576 
L 477.457042 151.4679 
L 484.409331 151.4679 
L 485.568046 164.9782 
L 502.948768 164.9782 
L 504.107482 219.0194 
L 529.599208 219.0194 
L 530.757923 205.5091 
L 556.249648 205.5091 
L 557.408363 232.5297 
L 582.900088 232.5297 
L 584.058803 246.04 
L 609.550528 246.04 
L 610.709243 232.5297 
L 662.851408 232.5297 
L 664.010123 246.04 
L 709.2 246.04 
L 709.2 246.04 
" clip-path="url(#p5d7e830531)" style="fill: none; stroke: #ff7f0e; stroke-width: 1.8; stroke-linecap: square"/>
   </g>
   <g id="line2d_14"/>
   <g id="line2d_15"/>
   <g id="patch_3">
    <path d="M 51.05 246.04 
L 51.05 29.8752 
" style="fill: none; stroke: #000000; stroke-width: 0.8; stroke-linejoin: miter; stroke-linecap: square"/>
   </g>
   <g id="patch_4">
    <path d="M 51.05 246.04 
L 709.2 246.04 
" style="fill: none; stroke: #000000; stroke-width: 0.8; stroke-linejoin: miter; stroke-linecap: square"/>
   </g>
   <g id="text_14">
    <text style="font-size: 12px; font-family: 'DejaVu Sans', 'Bitstream Vera Sans', 'Computer Modern Sans Serif', 'Lucida Grande', 'Verdana', 'Geneva', 'Lucid', 'Arial', 'Helvetica', 'Avant Garde', sans-serif; text-anchor: middle" x="380.125" y="19.551904" transform="rotate(-0 380.125 19.551904)">Nucleoprotein seroreactivity [Weak]</text>
   </g>
   <g id="legend_1">
    <g id="patch_5">
     <path d="M 576.678125 81.909575 
L 702.2 81.909575 
Q 704.2 81.909575 704.2 79.909575 
L 704.2 36.8752 
Q 704.2 34.8752 702.2 34.8752 
L 576.678125 34.8752 
Q 574.678125 34.8752 574.678125 36.8752 
L 574.678125 79.909575 
Q 574.678125 81.909575 576.678125 81.909575 
z
" style="fill: #ffffff; opacity: 0.8; stroke: #cccccc; stroke-linejoin: miter"/>
    </g>
    <g id="text_15">
     <text style="font-size: 10px; font-family: 'DejaVu Sans', 'Bitstream Vera Sans', 'Computer Modern Sans Serif', 'Lucida Grande', 'Verdana', 'Geneva', 'Lucid', 'Arial', 'Helvetica', 'Avant Garde', sans-serif; text-anchor: start" x="617.340625" y="46.473638" transform="rotate(-0 617.340625 46.473638)">category</text>
    </g>
    <g id="line2d_16">
     <path d="M 578.678125 57.651763 
L 588.678125 57.651763 
L 598.678125 57.651763 
" style="fill: none; stroke: #1f77b4; stroke-width: 1.8; stroke-linecap: square"/>
    </g>
    <g id="text_16">
     <text style="font-size: 10px; font-family: 'DejaVu Sans', 'Bitstream Vera Sans', 'Computer Modern Sans Serif', 'Lucida Grande', 'Verdana', 'Geneva', 'Lucid', 'Arial', 'Helvetica', 'Avant Garde', sans-serif; text-anchor: start" x="606.678125" y="61.151763" transform="rotate(-0 606.678125 61.151763)">Household contact</text>
    </g>
    <g id="line2d_17">
     <path d="M 578.678125 72.329888 
L 588.678125 72.329888 
L 598.678125 72.329888 
" style="fill: none; stroke: #ff7f0e; stroke-width: 1.8; stroke-linecap: square"/>
    </g>
    <g id="text_17">
     <text style="font-size: 10px; font-family: 'DejaVu Sans', 'Bitstream Vera Sans', 'Computer Modern Sans Serif', 'Lucida Grande', 'Verdana', 'Geneva', 'Lucid', 'Arial', 'Helvetica', 'Avant Garde', sans-serif; text-anchor: start" x="606.678125" y="75.829888" transform="rotate(-0 606.678125 75.829888)">Lassa survivor</text>
    </g>
   </g>
  </g>
 </g>
 <defs>
  <clipPath id="p5d7e830531">
   <rect x="51.05" y="29.8752" width="658.15" height="216.1648"/>
  </clipPath>
 </defs>
</svg>
